<?xml version="1.0" standalone="no"?>
<!DOCTYPE svg PUBLIC "-//W3C//DTD SVG 20010904//EN"
 "http://www.w3.org/TR/2001/REC-SVG-20010904/DTD/svg10.dtd">
<svg version="1.0" xmlns="http://www.w3.org/2000/svg"
 width="184.000000pt" height="184.000000pt" viewBox="0 0 184.000000 184.000000"
 preserveAspectRatio="xMidYMid meet">
<metadata>
Created by potrace 1.14, written by Peter Selinger 2001-2017
</metadata>
<g transform="translate(0.000000,184.000000) scale(0.100000,-0.100000)"
fill="#000000" stroke="none">
<path d="M190 1784 c0 -20 5 -65 12 -101 10 -57 9 -73 -12 -159 -21 -88 -22
-102 -11 -159 16 -77 6 -103 -69 -188 -49 -54 -64 -97 -35 -97 8 0 29 -13 47
-30 l33 -29 -17 -31 c-24 -43 -23 -53 13 -79 22 -17 28 -26 20 -34 -20 -20
-12 -55 19 -77 27 -19 30 -27 30 -75 0 -35 5 -59 16 -69 40 -40 240 0 471 95
18 7 35 10 39 6 4 -4 -30 -45 -75 -93 -101 -104 -135 -171 -136 -260 0 -83 18
-104 89 -104 28 0 79 10 113 22 34 12 65 20 68 16 3 -3 -4 -23 -16 -44 -62
-108 -79 -144 -93 -199 -14 -51 -15 -78 -2 -64 22 24 109 173 155 266 112 223
153 381 153 578 -1 254 -78 454 -236 610 -89 88 -176 146 -363 242 -82 41
-152 79 -158 84 -5 5 -19 9 -32 9 -20 0 -23 -5 -23 -36z"/>
<path d="M1473 1736 c-254 -132 -349 -200 -438 -316 -69 -89 -71 -97 -41 -161
61 -130 91 -315 76 -469 -11 -114 -27 -186 -72 -316 l-32 -92 41 -81 c61 -118
152 -271 163 -271 25 0 -21 132 -80 232 -23 38 -39 72 -36 76 4 3 34 -4 69
-16 34 -12 85 -22 113 -22 72 0 88 20 88 108 -1 90 -31 147 -139 262 -47 49
-85 91 -85 94 0 7 52 -9 86 -27 77 -39 299 -97 374 -97 65 0 80 16 80 86 0 51
2 56 30 72 31 18 41 57 19 79 -8 8 -2 17 20 34 34 25 39 50 16 69 -8 7 -15 20
-15 30 0 20 48 65 80 75 11 3 20 11 20 17 0 5 -24 37 -54 70 -67 74 -90 119
-82 162 18 92 17 106 -4 190 -16 63 -21 100 -16 134 4 26 10 73 13 105 5 51 3
57 -13 57 -11 0 -92 -38 -181 -84z"/>
</g>
</svg>
