<?xml version="1.0" encoding="utf-8"?>
<!-- Generator: Adobe Illustrator 28.3.0, SVG Export Plug-In . SVG Version: 6.00 Build 0)  -->
<svg version="1.1" id="Warstwa_1" xmlns="http://www.w3.org/2000/svg" xmlns:xlink="http://www.w3.org/1999/xlink" x="0px" y="0px"
	 viewBox="0 0 24 24" style="enable-background:new 0 0 24 24;" xml:space="preserve">
<style type="text/css">
	.st0{fill:none;stroke:#FFFFFF;stroke-width:2;stroke-linecap:round;stroke-linejoin:round;}
</style>
<path class="st0" d="M16,3c-1.1,0-2,0.9-2,2v6c0,1.1,0.9,2,2,2c0.6,0,1,0.4,1,1v1c0,1.1-0.9,2-2,2c-0.6,0-1,0.4-1,1v2
	c0,0.6,0.4,1,1,1c3.3,0,6-2.7,6-6V5c0-1.1-0.9-2-2-2H16z"/>
<path class="st0" d="M5,3C3.9,3,3,3.9,3,5v6c0,1.1,0.9,2,2,2c0.6,0,1,0.4,1,1v1c0,1.1-0.9,2-2,2c-0.6,0-1,0.4-1,1v2c0,0.6,0.4,1,1,1
	c3.3,0,6-2.7,6-6V5c0-1.1-0.9-2-2-2H5z"/>
</svg>
